<svg width="139" height="139" xmlns="http://www.w3.org/2000/svg">

 <g>
  <title>background</title>
  <rect fill="none" id="canvas_background" height="402" width="582" y="-1" x="-1"/>
 </g>
 <g>
  <title>Layer 1</title>
  <path fill="#ffffff" id="svg_1" d="m127.558,111.961l-27.309,-27.311c4.64,-7.387 7.333,-16.118 7.333,-25.488c0,-26.509 -21.49,-47.996 -47.998,-47.996c-26.508,0 -47.996,21.487 -47.996,47.996c0,26.51 21.487,47.995 47.996,47.995c10.197,0 19.642,-3.188 27.414,-8.605l26.984,26.986c1.875,1.873 4.333,2.806 6.788,2.806c2.458,0 4.913,-0.933 6.791,-2.806c3.747,-3.751 3.747,-9.827 -0.003,-13.577zm-67.974,-20.354c-17.917,0 -32.443,-14.525 -32.443,-32.443s14.526,-32.444 32.443,-32.444c17.918,0 32.443,14.526 32.443,32.444s-14.525,32.443 -32.443,32.443z"/>
 </g>
</svg>