<svg width="128" height="128" xmlns="http://www.w3.org/2000/svg">

 <g>
  <title>background</title>
  <rect fill="none" id="canvas_background" height="402" width="582" y="-1" x="-1"/>
 </g>
 <g>
  <title>Layer 1</title>
  <circle r="64" id="circle" fill="#000000" cy="64" cx="64"/>
  <path stroke="null" id="globe" fill="#FFFFFF" d="m105.000001,64c0,-22.686667 -18.313333,-41 -41,-41s-41,18.313333 -41,41s18.313333,41 41,41c9.566667,0 18.45,-3.28 25.42,-8.883333c0.273333,0 0.546667,-0.136667 0.82,-0.136667c0,-0.136667 -0.136667,-0.273333 -0.136667,-0.41c9.156667,-7.516667 14.896667,-18.86 14.896667,-31.57zm-5.603333,-2.733333l-21.73,0c-0.136667,-4.92 -0.546667,-9.703333 -1.093333,-13.94c4.51,-2.323333 8.2,-5.876667 10.796667,-10.113333c6.833333,5.876667 11.343333,14.486667 12.026667,24.053333zm-35.396667,38.266667c-2.733333,0 -5.33,-6.013333 -6.696667,-15.306667c2.186667,-0.683333 4.373333,-1.093333 6.696667,-1.093333c2.323333,0 4.646667,0.41 6.696667,1.093333c-1.366667,9.293333 -3.963333,15.306667 -6.696667,15.306667zm11.48,-13.12c3.143333,1.913333 5.603333,4.51 7.516667,7.653333c-3.553333,2.186667 -7.516667,3.826667 -11.753333,4.783333c1.64,-3.28 3.143333,-7.516667 4.236667,-12.436667zm-18.723333,12.436667c-4.236667,-0.82 -8.2,-2.46 -11.753333,-4.783333c1.776667,-3.143333 4.373333,-5.74 7.516667,-7.653333c1.093333,4.92 2.596667,9.156667 4.236667,12.436667zm7.79,-21.183333c-2.733333,0 -5.466667,0.41 -7.926667,1.23c-0.41,-3.69 -0.683333,-7.79 -0.683333,-12.163333l16.4,0c-0.136667,4.236667 -0.273333,8.2 -0.683333,11.89c-2.46,-0.683333 -4.646667,-0.956667 -7.106667,-0.956667zm-8.746667,-16.4c0.136667,-4.236667 0.273333,-8.336667 0.683333,-12.026667c2.323333,0.683333 4.92,1.093333 7.516667,1.093333c2.596667,0 5.056667,-0.41 7.516667,-1.093333c0.41,3.69 0.683333,7.79 0.683333,12.026667l-16.4,0zm8.2,-32.8c2.733333,0 5.193333,6.013333 6.696667,15.17c-2.323333,0.82 -4.646667,1.23 -7.243333,1.23c-2.186667,0 -4.236667,-0.273333 -6.286667,-0.956667c1.503333,-9.293333 3.963333,-15.443333 6.833333,-15.443333zm-11.48,13.393333c-3.143333,-1.913333 -5.876667,-4.51 -7.79,-7.79c3.69,-2.323333 7.653333,-4.1 12.026667,-4.92c-1.64,3.28 -3.143333,7.653333 -4.236667,12.71zm18.723333,-12.71c4.1,0.82 7.79,2.323333 11.206667,4.51c-1.776667,3.143333 -4.236667,5.74 -7.106667,7.653333c-1.093333,-4.92 -2.46,-9.02 -4.1,-12.163333zm-30.613334,8.063333c2.596667,4.236667 6.286667,7.79 10.796667,10.113333c-0.683333,4.373333 -1.093333,9.02 -1.093333,13.94l-21.73,0c0.683333,-9.566667 5.193333,-18.176667 12.026667,-24.053333zm-12.026667,29.52l21.73,0c0.136667,5.056667 0.546667,9.84 1.23,14.213333c-4.373333,2.323333 -7.926667,5.876667 -10.523333,10.113333c-6.97,-5.876667 -11.753333,-14.623333 -12.436667,-24.326667zm47.97,13.666667c0.683333,-4.236667 0.956667,-8.883333 1.093333,-13.666667l21.73,0c-0.683333,9.43 -5.056667,17.766667 -11.753333,23.78c-2.733333,-4.373333 -6.56,-7.79 -11.07,-10.113333z"/>
 </g>
</svg>