<svg width="128" height="128" xmlns="http://www.w3.org/2000/svg">

 <g>
  <title>background</title>
  <rect fill="none" id="canvas_background" height="402" width="582" y="-1" x="-1"/>
 </g>
 <g>
  <title>Layer 1</title>
  <circle r="64" id="circle" fill="#000000" cy="64" cx="64"/>
  <path id="globe" fill="#FFFFFF" d="m94,64c0,-16.6 -13.4,-30 -30,-30s-30,13.4 -30,30s13.4,30 30,30c7,0 13.5,-2.4 18.6,-6.5c0.2,0 0.4,-0.1 0.6,-0.1c0,-0.1 -0.1,-0.2 -0.1,-0.3c6.7,-5.5 10.9,-13.8 10.9,-23.1zm-4.1,-2l-15.9,0c-0.1,-3.6 -0.4,-7.1 -0.8,-10.2c3.3,-1.7 6,-4.3 7.9,-7.4c5,4.3 8.3,10.6 8.8,17.6zm-25.9,28c-2,0 -3.9,-4.4 -4.9,-11.2c1.6,-0.5 3.2,-0.8 4.9,-0.8c1.7,0 3.4,0.3 4.9,0.8c-1,6.8 -2.9,11.2 -4.9,11.2zm8.4,-9.6c2.3,1.4 4.1,3.3 5.5,5.6c-2.6,1.6 -5.5,2.8 -8.6,3.5c1.2,-2.4 2.3,-5.5 3.1,-9.1zm-13.7,9.1c-3.1,-0.6 -6,-1.8 -8.6,-3.5c1.3,-2.3 3.2,-4.2 5.5,-5.6c0.8,3.6 1.9,6.7 3.1,9.1zm5.7,-15.5c-2,0 -4,0.3 -5.8,0.9c-0.3,-2.7 -0.5,-5.7 -0.5,-8.9l12,0c-0.1,3.1 -0.2,6 -0.5,8.7c-1.8,-0.5 -3.4,-0.7 -5.2,-0.7zm-6.4,-12c0.1,-3.1 0.2,-6.1 0.5,-8.8c1.7,0.5 3.6,0.8 5.5,0.8c1.9,0 3.7,-0.3 5.5,-0.8c0.3,2.7 0.5,5.7 0.5,8.8l-12,0zm6,-24c2,0 3.8,4.4 4.9,11.1c-1.7,0.6 -3.4,0.9 -5.3,0.9c-1.6,0 -3.1,-0.2 -4.6,-0.7c1.1,-6.8 2.9,-11.3 5,-11.3zm-8.4,9.8c-2.3,-1.4 -4.3,-3.3 -5.7,-5.7c2.7,-1.7 5.6,-3 8.8,-3.6c-1.2,2.4 -2.3,5.6 -3.1,9.3zm13.7,-9.3c3,0.6 5.7,1.7 8.2,3.3c-1.3,2.3 -3.1,4.2 -5.2,5.6c-0.8,-3.6 -1.8,-6.6 -3,-8.9zm-22.4,5.9c1.9,3.1 4.6,5.7 7.9,7.4c-0.5,3.2 -0.8,6.6 -0.8,10.2l-15.9,0c0.5,-7 3.8,-13.3 8.8,-17.6zm-8.8,21.6l15.9,0c0.1,3.7 0.4,7.2 0.9,10.4c-3.2,1.7 -5.8,4.3 -7.7,7.4c-5.1,-4.3 -8.6,-10.7 -9.1,-17.8zm35.1,10c0.5,-3.1 0.7,-6.5 0.8,-10l15.9,0c-0.5,6.9 -3.7,13 -8.6,17.4c-2,-3.2 -4.8,-5.7 -8.1,-7.4z"/>
 </g>
</svg>